<?xml version="1.0" standalone="no"?>
<!DOCTYPE svg PUBLIC "-//W3C//DTD SVG 20010904//EN"
 "http://www.w3.org/TR/2001/REC-SVG-20010904/DTD/svg10.dtd">
<svg version="1.0" xmlns="http://www.w3.org/2000/svg"
 width="770.000000pt" height="771.000000pt" viewBox="0 0 770.000000 771.000000"
 preserveAspectRatio="xMidYMid meet">

<g transform="translate(0.000000,771.000000) scale(0.100000,-0.100000)"
fill="#000000" stroke="none">
<path d="M5080 4970 c-417 -26 -849 -141 -1213 -323 -134 -67 -457 -267 -457
-284 0 -3 17 5 38 17 360 215 737 357 1177 445 266 53 394 67 686 72 348 7
665 -18 959 -78 56 -11 104 -18 106 -16 7 6 -307 86 -440 112 -253 49 -597 72
-856 55z"/>
<path d="M2715 4646 c-74 -33 -115 -127 -86 -201 7 -18 9 -17 24 12 25 47 77
83 135 92 125 20 330 -44 532 -165 54 -32 48 -26 -50 53 -106 85 -160 120
-253 163 -125 58 -237 75 -302 46z"/>
<path d="M100 4141 c0 -27 -3 -56 -6 -65 -5 -14 9 -16 120 -16 l127 0 -1 -322
-1 -323 65 -1 66 -1 0 323 0 324 125 0 125 0 0 65 0 65 -310 0 -310 0 0 -49z"/>
<path d="M923 4175 c-18 -8 -42 -29 -53 -47 -19 -31 -20 -50 -20 -321 0 -248
2 -294 16 -324 31 -63 37 -64 308 -66 l246 -2 0 62 0 63 -217 2 -218 3 -3 258
-2 257 219 0 219 0 4 65 3 65 -235 0 c-179 -1 -243 -4 -267 -15z"/>
<path d="M1900 4168 c-28 -19 -66 -82 -202 -333 -92 -171 -167 -318 -168 -328
0 -26 27 -73 47 -82 10 -4 105 -9 211 -12 l192 -4 0 66 0 65 -140 0 c-77 0
-140 3 -140 8 1 4 61 120 134 257 l133 250 47 3 46 3 0 -327 c0 -293 2 -326
16 -320 9 3 40 6 70 6 l54 0 0 313 c0 171 -5 330 -10 351 -5 22 -23 53 -39 70
-30 30 -36 31 -124 34 -83 3 -95 1 -127 -20z"/>
<path d="M2380 3803 l0 -388 65 0 65 0 0 248 c0 136 3 247 8 247 4 -1 25 -40
47 -88 22 -48 74 -160 117 -250 l77 -164 78 4 78 3 57 115 c31 63 82 171 114
240 32 69 62 129 66 135 4 5 8 -104 8 -242 l0 -250 65 -2 65 -2 0 391 0 390
-76 0 -75 0 -51 -107 c-83 -177 -246 -514 -250 -519 -2 -2 -71 138 -153 311
l-148 315 -79 0 -78 0 0 -387z"/>
<path d="M3555 4180 c-38 -15 -68 -58 -75 -107 -3 -26 -6 -166 -5 -310 2 -363
-18 -340 312 -345 222 -3 233 -2 260 18 49 36 53 55 53 252 l0 182 -170 0
-170 0 0 -69 0 -69 58 3 c31 1 78 0 105 -3 l47 -5 0 -93 0 -94 -180 0 -180 0
0 260 0 260 215 0 215 0 0 65 0 65 -232 -1 c-128 0 -242 -4 -253 -9z"/>
<path d="M4270 3802 c0 -438 -9 -396 83 -386 l47 6 0 384 0 384 -65 0 -65 0 0
-388z"/>
<path d="M4590 3803 l0 -388 62 1 63 2 5 277 5 277 170 -278 170 -278 78 -3
77 -3 0 390 0 390 -65 0 -65 0 -2 -276 -3 -276 -119 193 c-65 107 -142 231
-170 276 l-51 83 -77 0 -78 0 0 -387z"/>
<path d="M5474 4171 c-65 -40 -64 -34 -64 -374 l0 -309 34 -34 34 -34 251 0
251 0 0 60 0 60 -220 0 -220 0 0 260 0 260 220 0 220 0 0 65 0 65 -237 0
c-217 0 -241 -2 -269 -19z"/>
<path d="M6203 4175 c-18 -8 -42 -29 -53 -47 -19 -31 -20 -50 -20 -321 0 -416
-21 -391 328 -392 l242 -1 0 63 0 63 -217 2 -218 3 -3 258 -2 257 220 0 220 0
0 65 0 65 -232 0 c-177 -1 -241 -4 -265 -15z"/>
<path d="M6840 4125 l0 -65 250 0 250 0 0 -125 0 -125 -250 0 -250 0 0 -197 0
-198 65 3 65 4 0 129 0 129 78 0 77 0 85 -121 c47 -66 91 -126 99 -132 11 -9
161 -18 161 -9 0 1 -40 60 -89 130 l-90 127 50 6 c56 8 91 27 116 66 14 21 18
54 21 162 5 157 -5 205 -48 246 l-31 30 -280 3 -279 3 0 -66z"/>
<path d="M1030 3800 l0 -70 139 0 139 0 4 66 c1 36 1 68 -1 70 -2 2 -67 4
-143 4 l-138 0 0 -70z"/>
<path d="M5590 3800 l0 -70 135 0 135 0 0 70 0 70 -135 0 -135 0 0 -70z"/>
<path d="M6310 3800 l0 -70 140 0 140 0 0 70 0 70 -140 0 -140 0 0 -70z"/>
</g>
</svg>
